<svg version="1.1" id="Layer_1" xmlns="http://www.w3.org/2000/svg" xmlns:xlink="http://www.w3.org/1999/xlink" x="0px" y="0px"
	 width="100%" viewBox="0 0 1024 1024" enable-background="new 0 0 1024 1024" xml:space="preserve">
<path fill="#000000" opacity="1.000000" stroke="none" 
	d="
M532.811096,712.264954 
	C465.009369,712.259155 397.683258,712.293518 330.357239,712.222534 
	C309.997131,712.201050 295.056885,702.836060 285.359131,685.075256 
	C282.016052,678.952698 280.904297,672.141296 280.901398,665.278748 
	C280.857483,562.289917 280.863708,459.301086 280.975922,356.312378 
	C280.986572,346.526642 280.920197,336.595520 285.934235,327.604889 
	C295.582672,310.304321 310.434326,301.756165 330.108856,301.749176 
	C440.263672,301.710022 550.418518,301.748138 660.573303,301.758392 
	C672.905273,301.759521 685.242310,301.525848 697.568115,301.798584 
	C717.649719,302.242889 731.919434,312.017944 740.759033,329.845764 
	C743.459961,335.293091 744.311768,341.212433 744.307373,347.308990 
	C744.270081,399.136719 744.305420,450.964447 744.292358,502.792206 
	C744.289795,513.009705 737.090393,520.985229 727.771057,521.239624 
	C719.295532,521.471069 711.598389,513.733521 710.791504,504.106323 
	C710.652710,502.450623 710.739075,500.775208 710.738647,499.108887 
	C710.726135,450.947418 710.728271,402.785950 710.696533,354.624481 
	C710.688171,341.882996 705.127136,336.366180 692.407349,336.364929 
	C572.920227,336.353455 453.433075,336.343872 333.945953,336.343903 
	C320.221008,336.343933 314.324677,342.101746 314.320557,355.633575 
	C314.290009,456.122650 314.280212,556.611694 314.285980,657.100769 
	C314.286713,669.532043 320.309387,675.568115 332.662231,675.570923 
	C390.156006,675.583923 447.649872,675.626160 505.143433,675.514587 
	C515.297363,675.494873 525.455383,674.590271 535.604370,675.509338 
	C547.160645,676.555786 553.349426,682.969971 553.297302,693.654541 
	C553.248230,703.717590 545.535583,711.467468 534.782898,712.250305 
	C534.286438,712.286499 533.785583,712.261292 532.811096,712.264954 
z"/>
<path fill="#000000" opacity="1.000000" stroke="none" 
	d="
M579.622192,459.150391 
	C579.212646,451.567169 582.014465,446.259552 588.732910,443.617401 
	C595.714172,440.871918 601.443359,443.666626 606.315918,448.599335 
	C624.465881,466.973755 642.495300,485.467468 660.680542,503.806732 
	C695.875977,539.300232 731.154175,574.711670 766.370667,610.184265 
	C769.052063,612.885132 772.089661,615.410522 773.178772,619.284668 
	C775.684875,628.199341 769.668091,636.256165 760.282288,636.326782 
	C745.117859,636.440979 729.951843,636.338806 714.786682,636.384155 
	C713.017395,636.389465 711.162537,635.963745 709.359314,636.914490 
	C709.689087,639.329956 711.637878,640.536438 713.075500,642.018982 
	C720.963867,650.153870 728.950500,658.193359 736.849121,666.318420 
	C739.052307,668.584717 741.205933,670.924988 743.147400,673.414551 
	C747.625916,679.157104 747.650269,684.873230 742.627808,690.103760 
	C734.436279,698.634521 726.066650,707.012878 717.441528,715.102905 
	C710.778076,721.352905 703.852966,720.770813 696.757629,713.663940 
	C685.809937,702.698547 675.054993,691.540771 664.210938,680.471802 
	C660.013062,676.186768 655.668335,672.036865 651.632629,667.604858 
	C649.074280,664.795288 647.262512,664.487549 644.416443,667.450745 
	C632.760132,679.586243 620.868652,691.495789 609.072266,703.496826 
	C606.736450,705.873169 604.550354,708.409119 602.096252,710.654053 
	C598.253052,714.169495 593.907288,716.724304 588.526123,714.433167 
	C582.750977,711.974426 580.050293,707.231934 579.671265,701.074219 
	C579.640564,700.575867 579.658569,700.074524 579.655334,699.574585 
	C579.473389,671.248962 578.892822,642.919128 579.196716,614.598694 
	C579.750977,562.941162 579.491272,511.284790 579.622192,459.150391 
M672.481812,562.014709 
	C652.227905,542.583679 631.973938,523.152649 612.786865,504.745087 
	C612.786865,552.007690 612.786865,601.450439 612.786865,651.081665 
	C615.209839,650.392944 616.263794,648.815247 617.517639,647.520020 
	C625.861816,638.900391 634.293701,630.361145 642.448975,621.565674 
	C645.215027,618.582458 646.942688,618.205444 649.953308,621.373230 
	C657.640930,629.462280 665.691162,637.207886 673.646545,645.039917 
	C675.009521,646.381714 676.090759,648.197937 678.951782,648.657349 
	C678.951782,640.366516 678.511536,632.235840 679.083435,624.177002 
	C679.591248,617.021667 678.020203,611.460815 671.427551,607.882568 
	C670.477966,607.367188 669.444763,606.596863 669.256348,604.002197 
	C683.204590,604.002197 697.102600,604.002197 711.000610,604.002197 
	C711.168762,603.412659 711.336914,602.823120 711.505127,602.233582 
	C698.663025,588.995605 685.820923,575.757568 672.481812,562.014709 
z"/>
<path fill="#000000" opacity="1.000000" stroke="none" 
	d="
M449.216064,540.999878 
	C449.219543,547.327576 449.136932,553.157104 449.260773,558.982300 
	C449.326294,562.064209 448.384827,563.471008 444.990265,563.458679 
	C413.520813,563.344482 382.050812,563.326904 350.581146,563.392822 
	C347.009918,563.400269 345.938049,561.818726 345.944763,558.572266 
	C346.016418,523.772705 346.065399,488.973022 346.037140,454.173431 
	C346.033997,450.280090 347.696106,448.929199 351.471710,448.966309 
	C382.601593,449.272430 413.735687,448.698212 444.865997,449.474945 
	C449.301453,449.585632 449.057770,452.164948 449.062469,455.081604 
	C449.102539,480.057587 449.149963,505.033539 449.195312,530.009521 
	C449.201660,533.506348 449.208923,537.003113 449.216064,540.999878 
z"/>
<path fill="#000000" opacity="1.000000" stroke="none" 
	d="
M345.566711,394.081787 
	C343.195709,381.683105 350.630280,372.714203 363.106750,372.704651 
	C421.746277,372.659698 480.385895,372.675781 539.025452,372.674622 
	C579.839905,372.673798 620.654419,372.650879 661.468811,372.702179 
	C673.203186,372.716949 680.908569,380.670807 680.293457,391.864594 
	C679.884888,399.299774 673.785461,406.217987 666.378174,407.414093 
	C663.929016,407.809540 661.405579,407.870148 658.916016,407.871704 
	C621.266785,407.895416 583.617432,407.921234 545.968323,407.860199 
	C532.646179,407.838623 519.324219,407.440948 506.002594,407.465240 
	C470.857391,407.529358 435.712494,407.785126 400.567291,407.848358 
	C387.911987,407.871155 375.256134,407.556610 362.600403,407.406555 
	C352.936920,407.291992 348.458191,403.889404 345.566711,394.081787 
z"/>
<path fill="#000000" opacity="1.000000" stroke="none" 
	d="
M425.999695,600.570068 
	C432.661041,600.566711 438.825928,600.685181 444.982483,600.510193 
	C448.067963,600.422546 449.126129,601.675232 449.109497,604.612366 
	C449.056671,613.936951 449.077576,623.263000 449.186646,632.587097 
	C449.224823,635.849792 448.176788,637.416016 444.589844,637.405457 
	C413.283173,637.313416 381.976013,637.310669 350.669281,637.394348 
	C347.132660,637.403809 345.958069,635.906372 345.991150,632.624512 
	C346.081848,623.633118 346.200562,614.637817 346.021545,605.649780 
	C345.932373,601.173157 347.949310,599.949890 352.077606,599.996704 
	C376.550690,600.274536 401.025574,600.396362 425.999695,600.570068 
z"/>
<path fill="#000000" opacity="1.000000" stroke="none" 
	d="
M549.379761,552.971008 
	C549.185852,564.641113 550.657837,563.269409 539.516418,563.310608 
	C521.211548,563.378357 502.904907,563.191406 484.602142,563.394897 
	C480.048248,563.445557 478.453156,562.045105 478.601624,557.431580 
	C478.895844,548.288635 478.827362,539.125916 478.610199,529.978455 
	C478.520081,526.182617 480.102234,525.022278 483.596741,525.030579 
	C503.898590,525.079163 524.200806,525.078552 544.502380,524.986694 
	C548.126221,524.970337 549.503357,526.321045 549.404358,530.012878 
	C549.203735,537.495605 549.369507,544.988037 549.379761,552.971008 
z"/>
<path fill="#000000" opacity="1.000000" stroke="none" 
	d="
M478.677521,473.989441 
	C478.678925,466.999176 478.808716,460.503967 478.630707,454.017212 
	C478.537598,450.624451 479.807220,449.091919 483.205383,449.121490 
	C504.172516,449.303833 525.139893,449.463348 546.107544,449.579407 
	C548.486023,449.592590 549.341614,450.668640 549.332642,452.924774 
	C549.291504,463.244537 549.281738,473.564667 549.321045,483.884430 
	C549.331055,486.519348 547.977051,487.320618 545.576965,487.317017 
	C524.603882,487.285522 503.630798,487.268829 482.657867,487.318481 
	C479.545807,487.325867 478.601410,485.788269 478.686157,482.976440 
	C478.771393,480.149597 478.687805,477.317688 478.677521,473.989441 
z"/>
<path fill="#000000" opacity="1.000000" stroke="none" 
	d="
M514.000000,600.080017 
	C524.315491,600.081421 534.133057,600.201233 543.945374,600.026733 
	C547.999756,599.954590 549.536621,601.357849 549.422241,605.528748 
	C549.176025,614.505554 549.239685,623.496094 549.412048,632.476440 
	C549.481140,636.075745 548.315613,637.457092 544.565918,637.431641 
	C524.270386,637.293579 503.973175,637.306641 483.677307,637.412903 
	C480.124817,637.431519 478.560394,636.389099 478.636597,632.598267 
	C478.820465,623.451965 478.839478,614.295959 478.623779,605.151001 
	C478.526947,601.047363 480.453308,599.976685 484.053925,600.009949 
	C493.868652,600.100586 503.684570,600.065247 514.000000,600.080017 
z"/>
</svg>